/* XPM */
static char *Maelstrom_icon[] = {
/* width height num_colors chars_per_pixel */
"    48    48       92            2",
/* colors */
".. c #dedede",
".# c #d6d6d6",
".a c #cecece",
".b c #c6c6c6",
".c c #bdbdbd",
".d c #b5b5b5",
".e c #adadad",
".f c #a5a5a5",
".g c #9c9c9c",
".h c #949494",
".i c #8c8c8c",
".j c #848484",
".k c #7b7b7b",
".l c #737373",
".m c #6b6b6b",
".n c #636363",
".o c #5a5a5a",
".p c #525252",
".q c #4a4a4a",
".r c #424242",
".s c #393939",
".t c #313131",
".u c #292929",
".v c #212121",
".w c #181818",
".x c #101010",
".y c #080808",
".z c #ada5a5",
".A c #948c8c",
".B c #8c8484",
".C c #7b7373",
".D c #847b7b",
".E c #736b6b",
".F c #6b6363",
".G c #5a5252",
".H c #524a4a",
".I c #4a4242",
".J c #423939",
".K c #393131",
".L c #312929",
".M c #292121",
".N c #211818",
".O c #181010",
".P c #100808",
".Q c #080000",
".R c #737b7b",
".S c #7b8484",
".T c #6b7373",
".U c #636b6b",
".V c #525a5a",
".W c #5a6363",
".X c #4a5252",
".Y c #424a4a",
".Z c #738484",
".0 c #6b7b7b",
".1 c #394242",
".2 c #313939",
".3 c #293131",
".4 c #526363",
".5 c #738c8c",
".6 c #212929",
".7 c #5a7373",
".8 c #394a4a",
".9 c #638484",
"#. c #4a6363",
"## c #314242",
"#a c #5a7b7b",
"#b c #425a5a",
"#c c #182121",
"#d c #293939",
"#e c #4a6b6b",
"#f c #395252",
"#g c #426363",
"#h c #101818",
"#i c #314a4a",
"#j c #294242",
"#k c #426b6b",
"#l c #315252",
"#m c #396363",
"#n c #427373",
"#o c #315a5a",
"#p c #396b6b",
"#q c #295252",
"#r c #214242",
"#s c #316363",
"#t c #295a5a",
"#u c #183939",
"#v c #215252",
"#w c #081818",
"#x c #082929",
"#y c #000808",
"#z c #000000",
/* pixels */
"#z#z#z#z#z#z#z#z#z#z#z#z#z#z#z#z#z#z#z#z#z#z#z#z#z#z#z#z#z#z#z#z#z#z#z#z#z#z#z#z#z#z#z#z#z#z#z#z",
"#z.u.m.m.m.m.m.m.m.m.m.m.m.m.m.m.m.m.m.m.m.m.m.m.m.m.m.m.m.m.m.m.m.m.m.m.m.m.m.m.m.m.m.m.m.m.u#z",
"#z.m...c.d.d.d.d.d.d.d.d.d.d.d.d.d.d.d.d.d.d.d.d.d.d.d.d.d.d.d.d.d.d.d.d.d.d.d.d.d.d.d.d.c...m#z",
"#z.m.c.t.w.w.w.w.w.w.w.w.w.w.w.w.w.w.w.w.w.w.w.w.w.w.w.w.w.w.w.w.w.w.w.w.w.w.w.w.w.w.w.w.t.c.m#z",
"#z.l.d.y#z#z#z#z#z#z#z#z#z#z#z#z#z#z#z#z#z#z#z#z#z#z#z#z#z#z#z#z#z#z#z#z#z#z#z#z#z#z#z#z.y.d.l#z",
"#z.m.d.w#z#z#z#z#z#z#z#z#z#z#z#z#z#z#z#z#z#z#z#z.x.y#z#z#z#z#z#z.y#z#z#z#z#z#z#z#z#z#z#z.w.d.m#z",
"#z.m.d.w#z#z#z#z#z#z#z#z#z#z#z#z#z#z#z#z#z#z#z.x.w.v.x.y.y.y.x.u.s.v.y#z#z#z#z#z#z#z#z#z.w.d.m#z",
"#z.m.d.w#z#z#z#z#z#z#z#z#z#z#z#z#z#z#z.x.v.v.w.w.w.t.r.u.w.w.t.r.r.u.v.w#z#z#z#z#z#z#z#z.w.d.m#z",
"#z.m.d.w#z#z#z#z#z#z#z#z#z#z#z.y.y.y.w.s.p.X.2.v.v.r.o.p.t.v.r.q.s.v.s.r.x#z#z#z#z#z#z#z.w.d.m#z",
"#z.m.d.w#z#z#z#z#z#z#z.y.y.P.N.t.2.r.m.F.X#m#f.r.r.r.q.G.s.v.r.q.s.w.s.p.r.v#z#z#z#z#z#z.w.d.m#z",
"#z.m.d.w#z#z#z#z#z#z.w.t.u#d#l.X.p.o.m.n.q#f##.t.u.s.X#.#j.v.s.r.s.t.r.q.q.s.u.u.w#z#z#z.w.d.m#z",
"#z.m.d.w#z#z#z#z#z.x.t.q.r#l#s.p.p.p.p.q.r.H.K.x.y.L.V#p#r.v.J.q.p.o.p.r.r.r.r.o.s.y#z#z.w.d.m#z",
"#z.m.d.w#z#z#z#z#z.t.q.r.u#c.6.Y.K.u.p.q.I.l.q.x.y.u.p.X.3.v.r.m.j.S.F.H.r.u.u.p.s#z#z#z.w.d.m#z",
"#z.m.d.w#z#z#z#z.w.r.p.r.t.u.L.t.6.v.K.8#g.n.n.r.x.x.u.M.N.u.n.k.l.G#b#g.X.s.t.q.r.v#z#z.w.d.m#z",
"#z.m.d.w#z#z#z.x.u.s.r.r.r.q.r.v.w.w.O#r#s.2.F.k.v#z.y.y.x.u.m.m.r.w#u#p.V.H.r.s.q.r.y#z.w.d.m#z",
"#z.m.d.w#z#z.y.x.v.v.s.q.r.q.r.w#z#z.y#c.6.v.o.k.u.y.x.w.w.u.q.p.J.x.3.W.V.s.v.v.s.r.y#z.w.d.m#z",
"#z.m.d.w#z#z.v.s.s.w.v.t.r.s.v.y.x.v.x.y.Q#z.v.t.v.y#z.w.x.y.v.t.v#z.x.r.n.p.u.w.v.u#z#z.w.d.m#z",
"#z.m.d.w#z.y.s.o.p.t.w.u.r.u#z.x.t.r.w#z#z.y#z#z.v#h#y.v.w.y.v.u.v.y.y.t.l.m.t.x#h#c.y#z.w.d.m#z",
"#z.m.d.w#z#z.v.Y.o.p.r.r.q.w#z.s.t.x.y.N.J.r.s.t.r#l#v.1.o.n.q.o.m.q.s.p.i.p#z#z#x#o.Y.P.x.d.m#z",
"#z.m.d.w#z#z.y.v.Y#..4.I.L.x.x.u.x#z.M#i#g.T.m.n.j.Z.9.j.A.i.l.k.j.l.l.k.l.u.y.t.7.9.1.y.x.d.m#z",
"#z.m.d.w#z#z#z.Q#c#q#f.K.x.w.v.y.y.u.G#.#p.T.C.j.e.f.A.e.f.j.l.m.l.l.j.k.q.u.t.m.A.E.w#z.w.d.m#z",
"#z.m.d.w#z#z#z#z#z#h.w.w.w.v.w.y.r.k.l.W.X.p.n.j.e.f.i.h.i.l.p.r.q.q.o.o.p.q.q.p.I.u.y#z.w.d.m#z",
"#z.m.d.w#z#z#z#z#z#z#z.x.v.x.w.p.h.d.g.E.q.H.p.n.j.k.n.n.n.o.r.q.q.t.t.q.m.k.o.v.x#z#z#z.w.d.m#z",
"#z.m.d.w#z#z#z#z#z#z#z.x.w.v.q.f.a.c.c.j.p.V.q.r.q.r.s.s.s.s.s.q.q.w.v.p.j.h.m.y#z#z#z#z.w.d.m#z",
"#z.m.d.w#z#z#z#z#z#z#z.x.y.o.d.c.c.c.c.z.S#k#b.H.u.v.u.u.u.v.x.w.w#z.x.p.j.g.l.v#z#z#z#z.w.d.m#z",
"#z.m.d.w#z#z#z#z.y.y#z.y.r.g.#.b.c.b.a.h.X#j#f.q.w.y.y.y.y.w.v.r.p.r.u.s.C.h.j.n.u#z#z#z.w.d.m#z",
"#z.m.d.w#z#z#z.w.u.w#z.x.k.e.c.c.c.d.f.p.y.O.t.s.x#z#z#z.x.s.o.k.h.j.r.v.W.j.B.j.r#z#z#z.w.d.m#z",
"#z.m.d.w#z#z.x.s.q.w.w.r.l.i.g.d.d.i.q.x#z.y.w.x.y.y.w.u.o.j.j.i.k.o.L.6#t#a.C.m.u#z#z#z.w.d.m#z",
"#z.m.d.w#z#z.w.r.o.p.n.m.q.p.m.m.o.s.y#z#z.y.y#z.w.u.r.o.j.h.k.m.p.t.x#c#b.5.k.q.x#z#z#z.w.d.m#z",
"#z.m.d.w#z#z.w.s.n.i.g.k.u.v.t.w.y#z#z#z#z.y.x.v.q.o.n.k.l.n.q.r.t.x#z.N.m.h.l.u#z#z#z#z.w.d.m#z",
"#z.m.d.w#z#z.w.p.j.j.i.k.q.u.x#z#z.x.x#z#z#z.t.l.k.j.j.i.q.w.v.u.v#z#z.u.l.l.r.y#z#z#z#z.w.d.m#z",
"#z.m.d.w#z#z.y.t.q.s.s.r.t.x#z#z#z#z.x.y.x.t.m.h.i.h.j.o.v#z.x.x.y#z#w#i.U.I.x#z#z#z#z#z.w.d.m#z",
"#z.m.d.w#z#z#z#z#z#z.y.v.u.x#z.y.y#z.y.x.s.k.h.i.i.j.o.v.x.x.x.x.w.x#j#n.W.M#z#z#z#z#z#z.w.d.m#z",
"#z.m.d.w#z#z#z#z#z.x.t.o.l.r#z#z.x.w.y.v.o.g.f.i.h.o.v.v.w.w.x.t.q.t.W.j.n.v#z#z#z#z#z#z.w.d.m#z",
"#z.m.d.w#z#z#z#z#z.w.r.o.p.r.v#z.Q.N.y.s.j.f.f.i.l.s.x.w.u.s.q.o.m.n.D.B.o.v#z#z#z#z#z#z.w.d.m#z",
"#z.m.d.w#z#z#z#z#z.w.t.s.v.t.r.x#h.6.u.o.i.k.j.l.r.u.v.v.u.p.l.j.k.k.l.n.q.w#z#z#z#z#z#z.w.d.m#z",
"#z.m.d.w#z#z#z#z#z#z.x.u.s.r.q.F#g#s.R.l.o.p.s.u.v.t.r.v.u.q.m.j.j.m.s.v.u.x#z#z#z#z#z#z.w.d.m#z",
"#z.m.d.w#z#z#z#z#z#z.y.u.r.r.p.B.0#e.R.F.r.s.w.y.x.u.s.v.u.p.i.g.k.r.r.q.v#z#z#z#z#z#z#z.w.d.m#z",
"#z.m.d.w#z#z#z#z#z#z.y.v.s.s.r.n.n.q.q.p.o.o.t.y.y.x.w.w.s.m.e.g.o.v.q.m.w#z#z#z#z#z#z#z.w.d.m#z",
"#z.m.d.w#z#z#z#z#z#z.y.w.u.v.w.w.v.L.r.o.j.f.n.x.x#z#z.x.p.h.g.n.v.v.u.u.y#z#z#z#z#z#z#z.w.d.m#z",
"#z.m.d.w#z#z#z#z#z#z#z.y.y.y#z#z#z.x.u.q.k.e.k.u.v.y.y.w.p.k.n.u#z.x.y#z#z#z#z#z#z#z#z#z.w.d.m#z",
"#z.m.d.w#z#z#z#z#z#z#z#z#z#z#z#z#z#z.x.t.o.k.n.t.v.x.x.w.t.r.w#z#z#z#z#z#z#z#z#z#z#z#z#z.w.d.m#z",
"#z.m.d.w#z#z#z#z#z#z#z#z#z#z#z#z#z#z#z.u.p.o.u.y#z#z#z#z.y.y#z#z#z#z#z#z#z#z#z#z#z#z#z#z.w.d.m#z",
"#z.l.d.y#z#z#z#z#z#z#z#z#z#z#z#z#z#z#z#z.x.y#z#z#z#z#z#z#z#z#z#z#z#z#z#z#z#z#z#z#z#z#z#z.y.d.l#z",
"#z.m.c.t.w.w.w.w.w.w.w.w.w.w.w.w.w.w.w.w.x.x.w.w.w.w.w.w.w.w.w.w.w.w.w.w.w.w.w.w.w.w.w.w.t.c.m#z",
"#z.m...c.d.d.d.d.d.d.d.d.d.d.d.d.d.d.d.d.d.d.d.d.d.d.d.d.d.d.d.d.d.d.d.d.d.d.d.d.d.d.d.d.c...m#z",
"#z.u.m.m.m.m.m.m.m.m.m.m.m.m.m.m.m.m.m.m.m.m.m.m.m.m.m.m.m.m.m.m.m.m.m.m.m.m.m.m.m.m.m.m.m.m.u#z",
"#z#z#z#z#z#z#z#z#z#z#z#z#z#z#z#z#z#z#z#z#z#z#z#z#z#z#z#z#z#z#z#z#z#z#z#z#z#z#z#z#z#z#z#z#z#z#z#z"
};
